<svg xmlns="http://www.w3.org/2000/svg" width="72" height="72" fill="none"><path fill="#1D4B40" fill-rule="evenodd" d="M36 0C16.118 0 0 16.118 0 36s16.118 36 36 36 36-16.118 36-36S55.882 0 36 0Zm-5.418 26.902c-1.851.186-3.755.785-5.082 1.34v14.884c1.375-.525 3.16-1.036 4.93-1.216 1.64-.165 3.417-.056 4.82.74V28.03c-.981-1.033-2.673-1.329-4.668-1.128Zm10.836 0c-1.995-.2-3.687.095-4.668 1.128v14.62c1.403-.797 3.178-.905 4.82-.739 1.77.177 3.553.69 4.93 1.215V28.242c-1.328-.555-3.231-1.154-5.082-1.34ZM30.43 25.41c1.95-.195 4.093-.006 5.57 1.264 1.477-1.27 3.62-1.46 5.57-1.264 2.27.23 4.563 1.008 5.99 1.657a.75.75 0 0 1 .44.683v16.5a.75.75 0 0 1-1.06.682c-1.322-.6-3.455-1.321-5.522-1.53-2.112-.213-3.883.13-4.833 1.316a.75.75 0 0 1-1.17 0c-.95-1.185-2.721-1.529-4.834-1.316-2.066.209-4.197.93-5.52 1.53A.75.75 0 0 1 24 44.25v-16.5a.75.75 0 0 1 .44-.683c1.427-.65 3.72-1.428 5.99-1.657Z" clip-rule="evenodd"/></svg>