<svg xmlns="http://www.w3.org/2000/svg" width="72" height="72" fill="none"><path fill="#0067B1" fill-rule="evenodd" d="M36 0C16.118 0 0 16.118 0 36s16.118 36 36 36 36-16.118 36-36S55.882 0 36 0Zm-8.802 38.565-4.12-14.007h-2.982l1.363 4.575-2.785 9.432-4.12-14.007h-2.983l6.82 23.013h.284l4.261-14.262 4.262 14.262h.284l5.839-19.707.272-.465h4.802l-3.978 6.875v1.363h1.136c1.46 0 2.53.447 3.212 1.337.586.756.88 1.828.88 3.21 0 1.251-.274 2.321-.823 3.212-.55.89-1.223 1.334-2.018 1.334a2.862 2.862 0 0 1-1.974-.752c-.56-.502-1.009-1.19-1.35-2.061l-2.33.967c.474 1.439 1.204 2.58 2.188 3.423.985.842 2.14 1.264 3.466 1.264 1.761 0 3.196-.71 4.304-2.131 1.108-1.42 1.663-3.171 1.663-5.256 0-1.684-.38-3.152-1.138-4.403-.756-1.25-1.874-2.112-3.352-2.587l4.205-7.243v-1.393H31.318l-4.12 14.007Zm31.4-12.382c0-.302-.2-.423-.634-.423h-.381v.816h.393c.422 0 .622-.103.622-.393Zm-1.478-.725h.928c.69 0 1.027.23 1.027.677 0 .35-.205.592-.562.664l.55 1.123h-.52l-.5-1.05h-.46v1.05h-.463v-2.464Zm2.209 2.603a1.8 1.8 0 0 0 .55-1.31c0-.526-.188-.997-.539-1.348a1.85 1.85 0 0 0-1.346-.561c-.507 0-.973.187-1.315.537-.37.375-.575.858-.575 1.353s.199.96.555 1.323c.356.363.834.562 1.316.562.514 0 .98-.193 1.354-.556Zm-2.851-2.887a2.078 2.078 0 0 1 1.51-.616 2.173 2.173 0 0 1 2.18 2.174c0 .599-.223 1.13-.633 1.529a2.22 2.22 0 0 1-1.546.646c-.58 0-1.117-.23-1.534-.653a2.143 2.143 0 0 1-.635-1.522c0-.574.237-1.13.658-1.558Zm-1.665 2.192-.482-2.937-1.685 3.359s-.724-1.336-1.438-1.947c-.681-.581-1.564-1.119-2.678-1.003-1.079.111-2.294 1.06-3.111 2.64-.93 1.797-1.246 3.618-1.252 5.627-.01 2.815 1.028 4.737 1.028 4.737s-.238-.893-.198-2.407l.002-.087c.024-.92.051-1.947.741-4.003.597-1.772 1.96-3.21 3.162-3.458.937-.193 1.535-.053 2.454.595 1.09.768 1.748 2.157 1.748 2.157l1.71-3.273Zm-1.499 15.557c.472-.52 1.228-1.87 1.228-1.87l.434 2.266s-.27.524-.435.782c-.226.353-.634.943-1.066 1.404-.412.443-1.065.99-1.376 1.188l-.014.01c-.334.211-1.575 1-3.37.683-1.82-.323-3.02-1.75-3.637-2.579-.662-.889-1.128-1.91-1.28-2.244-.264-.58-.685-1.945-.685-1.945s.755 1.363 1.24 2.044c.483.682 1.337 1.413 1.673 1.662.335.247 1.29.842 2.318.942 1.029.1 1.574.013 2.615-.446 1.041-.458 1.885-1.376 2.355-1.897Z" clip-rule="evenodd"/></svg>