<svg xmlns="http://www.w3.org/2000/svg" width="72" height="72" fill="none"><rect width="72" height="72" fill="#1C78C0" rx="36"/><path fill="#fff" d="m53.944 47.135-16.669 9.437v-7.35l10.37-5.712 6.3 3.625Zm1.143-1.032v-19.72l-6.1 3.527v12.673l6.097 3.517.003.003Zm-35.944 1.032 16.653 9.43v-7.344l-10.374-5.71-6.28 3.624ZM18 46.103v-19.72l6.1 3.527v12.673l-6.1 3.52Zm.715-20.996 17.097-9.678v7.105l-10.955 6.024-.088.05-6.054-3.5Zm35.65 0-17.09-9.678v7.105l10.955 6.021.088.05 6.054-3.498h-.006ZM35.813 47.55l-10.25-5.64V30.75l10.25 5.903V47.55Zm1.463 0 10.25-5.633V30.749l-10.25 5.904V47.55ZM26.258 29.47l10.286-5.662 10.285 5.662-10.285 5.93-10.286-5.93Z"/></svg>